<svg width="24" height="24" viewBox="0 0 24 24" fill="none" xmlns="http://www.w3.org/2000/svg">
<path d="M9.24289 17.5L9.24289 17.5H9.24H5C4.86739 17.5 4.74021 17.4473 4.64645 17.3536C4.55268 17.2598 4.5 17.1326 4.5 17L4.50001 12.76L4.49999 12.7571C4.49961 12.6913 4.51222 12.6261 4.53711 12.5652C4.56186 12.5046 4.59826 12.4494 4.64426 12.4029C4.6445 12.4026 4.64475 12.4024 4.64499 12.4021L11.5833 5.47381L11.5842 5.47293L14.4042 2.64293L14.405 2.6421C14.4515 2.59524 14.5068 2.55804 14.5677 2.53266C14.6286 2.50727 14.694 2.4942 14.76 2.4942C14.826 2.4942 14.8914 2.50727 14.9523 2.53266C15.0131 2.55801 15.0684 2.59514 15.1148 2.64192C15.1149 2.64198 15.1149 2.64204 15.115 2.6421L19.3544 6.93147L19.3544 6.93149L19.3579 6.935C19.4048 6.98149 19.442 7.03679 19.4673 7.09771C19.4927 7.15864 19.5058 7.22399 19.5058 7.29C19.5058 7.35601 19.4927 7.42136 19.4673 7.48229C19.4421 7.54282 19.4052 7.59779 19.3588 7.64409C19.3585 7.64439 19.3582 7.6447 19.3579 7.645L16.5202 10.4227L16.5202 10.4227L16.5162 10.4267L9.59789 17.355C9.59767 17.3552 9.59744 17.3555 9.59722 17.3557C9.55064 17.4017 9.49547 17.4381 9.43484 17.4629C9.37393 17.4878 9.30869 17.5004 9.24289 17.5ZM15.1136 4.05645L14.76 3.70289L14.4064 4.05645L12.9864 5.47645L12.6329 5.83L12.9864 6.18355L15.8164 9.01355L16.17 9.36711L16.5236 9.01355L17.9436 7.59355L18.2971 7.24L17.9436 6.88645L15.1136 4.05645ZM5.64645 12.8164L5.5 12.9629V13.17V16V16.5H6H8.83H9.03711L9.18355 16.3536L15.1136 10.4236L15.4671 10.07L15.1136 9.71645L12.2836 6.88645L11.93 6.53289L11.5764 6.88645L5.64645 12.8164ZM3 20.5H21C21.1326 20.5 21.2598 20.5527 21.3536 20.6464C21.4473 20.7402 21.5 20.8674 21.5 21C21.5 21.1326 21.4473 21.2598 21.3536 21.3536C21.2598 21.4473 21.1326 21.5 21 21.5H3C2.86739 21.5 2.74021 21.4473 2.64645 21.3536C2.55268 21.2598 2.5 21.1326 2.5 21C2.5 20.8674 2.55268 20.7402 2.64645 20.6464C2.74021 20.5527 2.86739 20.5 3 20.5Z" fill="#333333" stroke="#333333"/>
</svg>
