<svg width="24" height="24" viewBox="0 0 24 24" fill="none" xmlns="http://www.w3.org/2000/svg">
<path d="M9.05699 10.6459L8.2003 11.4999H9.41H17C17.1326 11.4999 17.2598 11.5526 17.3536 11.6464C17.4473 11.7402 17.5 11.8673 17.5 11.9999C17.5 12.1326 17.4473 12.2597 17.3536 12.3535C17.2598 12.4473 17.1326 12.4999 17 12.4999H9.41H8.2003L9.05699 13.354L12.357 16.644L12.3579 16.6449C12.4048 16.6914 12.442 16.7467 12.4673 16.8077C12.4927 16.8686 12.5058 16.9339 12.5058 16.9999C12.5058 17.0659 12.4927 17.1313 12.4673 17.1922C12.442 17.2532 12.4048 17.3085 12.3579 17.3549L12.3579 17.3549L12.355 17.3578C12.3085 17.4047 12.2532 17.4419 12.1923 17.4673C12.1314 17.4927 12.066 17.5057 12 17.5057C11.934 17.5057 11.8686 17.4927 11.8077 17.4673C11.7468 17.4419 11.6915 17.4047 11.645 17.3578L11.6436 17.3564L6.64808 12.3609C6.60404 12.3141 6.56944 12.2592 6.54619 12.1992L6.54628 12.1992L6.5425 12.1899C6.49249 12.0682 6.49249 11.9317 6.5425 11.8099L6.54259 11.81L6.54619 11.8007C6.56944 11.7407 6.60404 11.6858 6.64808 11.639L11.6436 6.64349L11.2918 6.29177L11.6436 6.64349C11.7381 6.54896 11.8663 6.49585 12 6.49585C12.1337 6.49585 12.2619 6.54896 12.3564 6.64349C12.451 6.73803 12.5041 6.86625 12.5041 6.99994C12.5041 7.13356 12.451 7.26171 12.3566 7.35623C12.3566 7.35628 12.3565 7.35633 12.3564 7.35639L9.05699 10.6459Z" fill="#333333" stroke="#333333"/>
</svg>
